<svg width="75" height="75" viewBox="0 0 75 75" fill="none" xmlns="http://www.w3.org/2000/svg">
<path d="M37.5 4.6875C19.3799 4.6875 4.6875 19.3799 4.6875 37.5C4.6875 55.6201 19.3799 70.3125 37.5 70.3125C55.6201 70.3125 70.3125 55.6201 70.3125 37.5C70.3125 19.3799 55.6201 4.6875 37.5 4.6875ZM51.5625 39.2578C51.5625 39.5801 51.2988 39.8438 50.9766 39.8438H39.8438V50.9766C39.8438 51.2988 39.5801 51.5625 39.2578 51.5625H35.7422C35.4199 51.5625 35.1562 51.2988 35.1562 50.9766V39.8438H24.0234C23.7012 39.8438 23.4375 39.5801 23.4375 39.2578V35.7422C23.4375 35.4199 23.7012 35.1562 24.0234 35.1562H35.1562V24.0234C35.1562 23.7012 35.4199 23.4375 35.7422 23.4375H39.2578C39.5801 23.4375 39.8438 23.7012 39.8438 24.0234V35.1562H50.9766C51.2988 35.1562 51.5625 35.4199 51.5625 35.7422V39.2578Z" fill="#1B4C7B"/>
</svg>
