<svg width="75" height="75" viewBox="0 0 75 75" fill="none" xmlns="http://www.w3.org/2000/svg">
<path d="M15 15V60C15 61.9891 15.7902 63.8968 17.1967 65.3033C18.6032 66.7098 20.5109 67.5 22.5 67.5H58.125C58.6223 67.5 59.0992 67.3025 59.4508 66.9508C59.8025 66.5992 60 66.1223 60 65.625C60 65.1277 59.8025 64.6508 59.4508 64.2992C59.0992 63.9475 58.6223 63.75 58.125 63.75H22.5C21.5054 63.75 20.5516 63.3549 19.8484 62.6517C19.1451 61.9484 18.75 60.9946 18.75 60H56.25C57.2446 60 58.1984 59.6049 58.9016 58.9016C59.6049 58.1984 60 57.2446 60 56.25V15C60 13.0109 59.2098 11.1032 57.8033 9.6967C56.3968 8.29018 54.4891 7.5 52.5 7.5H22.5C20.5109 7.5 18.6032 8.29018 17.1967 9.6967C15.7902 11.1032 15 13.0109 15 15V15ZM52.5 11.25C53.4946 11.25 54.4484 11.6451 55.1516 12.3483C55.8549 13.0516 56.25 14.0054 56.25 15V56.25H18.75V15C18.75 14.0054 19.1451 13.0516 19.8484 12.3483C20.5516 11.6451 21.5054 11.25 22.5 11.25H52.5ZM43.4475 37.0462C44.7286 35.1081 45.2444 32.7633 44.895 30.4664C44.5455 28.1696 43.3556 26.0843 41.556 24.6149C39.7564 23.1455 37.4753 22.3966 35.155 22.5135C32.8346 22.6304 30.6403 23.6047 28.9975 25.2475C27.3547 26.8903 26.3804 29.0846 26.2635 31.405C26.1466 33.7253 26.8955 36.0064 28.3649 37.806C29.8343 39.6056 31.9196 40.7955 34.2164 41.145C36.5133 41.4944 38.8581 40.9786 40.7962 39.6975L45.5475 44.4525C45.7218 44.6268 45.9288 44.7651 46.1566 44.8595C46.3843 44.9538 46.6285 45.0024 46.875 45.0024C47.1215 45.0024 47.3657 44.9538 47.5934 44.8595C47.8212 44.7651 48.0282 44.6268 48.2025 44.4525C48.3768 44.2782 48.5151 44.0712 48.6095 43.8434C48.7038 43.6157 48.7524 43.3715 48.7524 43.125C48.7524 42.8785 48.7038 42.6343 48.6095 42.4066C48.5151 42.1788 48.3768 41.9718 48.2025 41.7975L43.4475 37.05V37.0462ZM30 31.875C30 30.3832 30.5926 28.9524 31.6475 27.8975C32.7024 26.8426 34.1332 26.25 35.625 26.25C37.1168 26.25 38.5476 26.8426 39.6025 27.8975C40.6574 28.9524 41.25 30.3832 41.25 31.875C41.25 33.3668 40.6574 34.7976 39.6025 35.8525C38.5476 36.9074 37.1168 37.5 35.625 37.5C34.1332 37.5 32.7024 36.9074 31.6475 35.8525C30.5926 34.7976 30 33.3668 30 31.875V31.875Z" fill="black"/>
</svg>
