<svg xmlns="http://www.w3.org/2000/svg" xmlns:xlink="http://www.w3.org/1999/xlink" width="42" zoomAndPan="magnify" viewBox="0 0 31.5 32.249999" height="43" preserveAspectRatio="xMidYMid meet" version="1.0"><defs><clipPath id="id1"><path d="M 13 13 L 22 13 L 22 26 L 13 26 Z M 13 13 " clip-rule="nonzero"/></clipPath><clipPath id="id2"><path d="M 5.089844 7.5625 L 31.753906 10.328125 L 29.523438 31.804688 L 2.863281 29.042969 Z M 5.089844 7.5625 " clip-rule="nonzero"/></clipPath><clipPath id="id3"><path d="M 5.089844 7.5625 L 31.753906 10.328125 L 29.523438 31.804688 L 2.863281 29.042969 Z M 5.089844 7.5625 " clip-rule="nonzero"/></clipPath><clipPath id="id4"><path d="M 27 10 L 30.898438 10 L 30.898438 24 L 27 24 Z M 27 10 " clip-rule="nonzero"/></clipPath><clipPath id="id5"><path d="M 5.089844 7.5625 L 31.753906 10.328125 L 29.523438 31.804688 L 2.863281 29.042969 Z M 5.089844 7.5625 " clip-rule="nonzero"/></clipPath><clipPath id="id6"><path d="M 5.089844 7.5625 L 31.753906 10.328125 L 29.523438 31.804688 L 2.863281 29.042969 Z M 5.089844 7.5625 " clip-rule="nonzero"/></clipPath><clipPath id="id7"><path d="M 3 23 L 14 23 L 14 31 L 3 31 Z M 3 23 " clip-rule="nonzero"/></clipPath><clipPath id="id8"><path d="M 5.089844 7.5625 L 31.753906 10.328125 L 29.523438 31.804688 L 2.863281 29.042969 Z M 5.089844 7.5625 " clip-rule="nonzero"/></clipPath><clipPath id="id9"><path d="M 5.089844 7.5625 L 31.753906 10.328125 L 29.523438 31.804688 L 2.863281 29.042969 Z M 5.089844 7.5625 " clip-rule="nonzero"/></clipPath></defs><g clip-path="url(#id1)"><g clip-path="url(#id2)"><g clip-path="url(#id3)"><path fill="rgb(0%, 29.019165%, 67.83905%)" d="M 13.949219 13.742188 L 15.011719 13.167969 L 21.464844 24.457031 L 20.402344 25.03125 Z M 13.949219 13.742188 " fill-opacity="1" fill-rule="nonzero"/></g></g></g><g clip-path="url(#id4)"><g clip-path="url(#id5)"><g clip-path="url(#id6)"><path fill="rgb(0%, 29.019165%, 67.83905%)" d="M 27.570312 10.152344 L 28.777344 10.019531 L 30.355469 23.058594 L 29.144531 23.195312 Z M 27.570312 10.152344 " fill-opacity="1" fill-rule="nonzero"/></g></g></g><g clip-path="url(#id7)"><g clip-path="url(#id8)"><g clip-path="url(#id9)"><path fill="rgb(0%, 29.019165%, 67.83905%)" d="M 3.433594 24.1875 L 4.078125 23.183594 L 13.742188 29.097656 L 13.097656 30.101562 Z M 3.433594 24.1875 " fill-opacity="1" fill-rule="nonzero"/></g></g></g></svg>