<svg xmlns="http://www.w3.org/2000/svg" viewBox="0 0 500 500"><g id="freepik--background-simple--inject-2"><path d="M385.52,181.68a40.7,40.7,0,0,1,18.46-.84c32.23,6.26,35.35,46.27,28,72.06-11.88,41.78-43.94,76.79-83.53,94.65s-86,18.95-127.25,5.46S143.79,312,117.65,277.27c-29.14-38.68-57.23-95.81-32-143.27,18.66-35.11,61.75-55.64,100.72-47.21a80.68,80.68,0,0,1,22.85,8.71c27.83,15.79,41.06,45.52,59.52,70.16,12.6,16.83,30.56,33.39,52.17,36.32C344.66,205.2,363.72,187.42,385.52,181.68Z" style="fill:#5490FF"></path><path d="M385.52,181.68a40.7,40.7,0,0,1,18.46-.84c32.23,6.26,35.35,46.27,28,72.06-11.88,41.78-43.94,76.79-83.53,94.65s-86,18.95-127.25,5.46S143.79,312,117.65,277.27c-29.14-38.68-57.23-95.81-32-143.27,18.66-35.11,61.75-55.64,100.72-47.21a80.68,80.68,0,0,1,22.85,8.71c27.83,15.79,41.06,45.52,59.52,70.16,12.6,16.83,30.56,33.39,52.17,36.32C344.66,205.2,363.72,187.42,385.52,181.68Z" style="fill:#fff;opacity:0.9"></path></g><g id="freepik--Shadow--inject-2"><ellipse id="freepik--path--inject-2" cx="250" cy="416.24" rx="193.89" ry="11.32" style="fill:#f5f5f5"></ellipse></g><g id="freepik--Plant--inject-2"><path d="M70.05,342c.21,1.47-3.77,2.44-7,3,.26,2.67,2,5.37,4.49,7.89,3.09-1.74,7.49-4,8.3-3.48s-3.62,3.53-6.44,5.25a57.06,57.06,0,0,0,6.39,4.84c1.38-1.3,3-2.43,4-1.82s.73,2.64.24,4.42c3.36,2,5.87,3.15,5.87,3.15a67.5,67.5,0,0,0,2.24-9.53c-.17-.33-.34-.67-.49-1-.54-1.25,0-1.78.88-2a32.82,32.82,0,0,0,0-6.86c-3.79-.8-8.41-2.28-6.68-4.55,1-1.38,3-1.53,4.94-1.19a8.61,8.61,0,0,0-.94-1.28c-6.92-7.62-11.74,0-11.74,0-4-3.35-9.66-2.44-10.88,2.79C65.48,341,69.8,340.13,70.05,342Z" style="fill:#5490FF"></path><path d="M70.05,342c.21,1.47-3.77,2.44-7,3,.26,2.67,2,5.37,4.49,7.89,3.09-1.74,7.49-4,8.3-3.48s-3.62,3.53-6.44,5.25a57.06,57.06,0,0,0,6.39,4.84c1.38-1.3,3-2.43,4-1.82s.73,2.64.24,4.42c3.36,2,5.87,3.15,5.87,3.15a67.5,67.5,0,0,0,2.24-9.53c-.17-.33-.34-.67-.49-1-.54-1.25,0-1.78.88-2a32.82,32.82,0,0,0,0-6.86c-3.79-.8-8.41-2.28-6.68-4.55,1-1.38,3-1.53,4.94-1.19a8.61,8.61,0,0,0-.94-1.28c-6.92-7.62-11.74,0-11.74,0-4-3.35-9.66-2.44-10.88,2.79C65.48,341,69.8,340.13,70.05,342Z" style="fill:#fff;opacity:0.30000000000000004;isolation:isolate"></path><path d="M78.68,397.94l-1-.09c0-.51,4.1-51.52-7.35-56.33a3.85,3.85,0,0,0-3.47.09c-4.14,2.15-6.12,11.08-6.14,11.17l-1-.21c.09-.39,2.11-9.48,6.66-11.85a4.88,4.88,0,0,1,4.32-.12C82.83,345.69,78.86,395.81,78.68,397.94Z" style="fill:#5490FF"></path><path d="M80.12,396.83c-.2-2.29-4.87-56.27,3.87-62,2.09-1.37,4-1.66,5.55-.86,4.12,2.08,4.67,10.91,4.69,11.28l-1,.06c0-.08-.53-8.62-4.15-10.45-1.24-.62-2.77-.35-4.55.81-8.24,5.41-3.46,60.52-3.41,61.07Z" style="fill:#5490FF"></path><path d="M81.44,401.19c-.07-1.75-1.51-43.07,6.45-46.68a5.55,5.55,0,0,1,4.73,0c5.46,2.4,8.83,12.58,9,13l-1,.31c0-.1-3.37-10.18-8.42-12.41a4.6,4.6,0,0,0-3.92,0c-6.1,2.77-6.3,34-5.86,45.74Z" style="fill:#5490FF"></path><path d="M79.41,399.3l-1-.11c1.4-12.29,4.08-45.06-.3-49a1.72,1.72,0,0,0-1.79-.55c-2.93,1.12-4.72,11.78-5.16,15.79l-1-.11c.17-1.53,1.77-15.07,5.8-16.62a2.66,2.66,0,0,1,2.82.75C84.45,354.53,79.62,397.48,79.41,399.3Z" style="fill:#5490FF"></path><polygon points="62.73 375.99 98.65 375.99 95.65 416.24 65.72 416.24 62.73 375.99" style="fill:#5490FF"></polygon><polygon points="73.64 375.99 74.64 416.24 95.65 416.24 98.65 375.99 73.64 375.99" style="fill:#fff;opacity:0.2;isolation:isolate"></polygon><path d="M67.62,361.23c-.38,1-3.17.2-5.36-.58-.75,1.74-.58,4,.07,6.41,2.5,0,6,.08,6.31.7s-3.44.94-5.77,1A40.53,40.53,0,0,0,65.15,374c1.3-.32,2.68-.47,3.07.24s-.45,1.88-1.37,2.81c1.4,2.36,2.54,3.95,2.54,3.95a48.57,48.57,0,0,0,4.65-5.1c0-.27,0-.53,0-.81.09-.95.6-1.1,1.21-.9a22.78,22.78,0,0,0,2.39-4.22c-2.07-1.79-4.41-4.29-2.56-5.1,1.11-.49,2.34.07,3.45,1a5.91,5.91,0,0,0-.14-1.11c-1.65-7.06-7.24-4-7.24-4-1.33-3.44-5.12-4.82-7.67-2C65.12,359.07,68.08,360,67.62,361.23Z" style="fill:#5490FF"></path><path d="M67.62,361.23c-.38,1-3.17.2-5.36-.58-.75,1.74-.58,4,.07,6.41,2.5,0,6,.08,6.31.7s-3.44.94-5.77,1A40.53,40.53,0,0,0,65.15,374c1.3-.32,2.68-.47,3.07.24s-.45,1.88-1.37,2.81c1.4,2.36,2.54,3.95,2.54,3.95a48.57,48.57,0,0,0,4.65-5.1c0-.27,0-.53,0-.81.09-.95.6-1.1,1.21-.9a22.78,22.78,0,0,0,2.39-4.22c-2.07-1.79-4.41-4.29-2.56-5.1,1.11-.49,2.34.07,3.45,1a5.91,5.91,0,0,0-.14-1.11c-1.65-7.06-7.24-4-7.24-4-1.33-3.44-5.12-4.82-7.67-2C65.12,359.07,68.08,360,67.62,361.23Z" style="fill:#fff;opacity:0.30000000000000004;isolation:isolate"></path><path d="M94.29,366a14,14,0,0,0-3.28.7,7.36,7.36,0,0,1-.48-2.38c-.23-7.25,5-4.19,7.7-6.32a5.89,5.89,0,0,1,4.58-1.44,11,11,0,0,0-.62,1.24,1.14,1.14,0,0,0,.88,1.55,3.22,3.22,0,0,0,2-.24,4.1,4.1,0,0,0,.53-.36,9.87,9.87,0,0,1,1,2.42,13.52,13.52,0,0,1,.47,3.1,10.37,10.37,0,0,0-1.21.34,1.12,1.12,0,0,0-.45,1.72,4.92,4.92,0,0,0,1.49,1.05,16.82,16.82,0,0,1-.91,3.4c-.12,0-.25,0-.37.06s-.52.12-.78.19a2.32,2.32,0,0,0-.44.16,1.15,1.15,0,0,0-.67.88,1.13,1.13,0,0,0,.42,1,4.34,4.34,0,0,0,.54.33,7.89,7.89,0,0,1-2.87,2.9,31.08,31.08,0,0,1-3-1.61c.22-.29.43-.58.63-.88a1.68,1.68,0,0,0,.31-1.14,1.52,1.52,0,0,0-.58-1A1.55,1.55,0,0,0,97,372c-.24.35-.5.69-.76,1a18.55,18.55,0,0,1-3.68-3.57l.11,0a10.87,10.87,0,0,1,2-.34,1.54,1.54,0,0,0-.4-3.06Z" style="fill:#5490FF"></path><path d="M94.29,366a14,14,0,0,0-3.28.7,7.36,7.36,0,0,1-.48-2.38c-.23-7.25,5-4.19,7.7-6.32a5.89,5.89,0,0,1,4.58-1.44,11,11,0,0,0-.62,1.24,1.14,1.14,0,0,0,.88,1.55,3.22,3.22,0,0,0,2-.24,4.1,4.1,0,0,0,.53-.36,9.87,9.87,0,0,1,1,2.42,13.52,13.52,0,0,1,.47,3.1,10.37,10.37,0,0,0-1.21.34,1.12,1.12,0,0,0-.45,1.72,4.92,4.92,0,0,0,1.49,1.05,16.82,16.82,0,0,1-.91,3.4c-.12,0-.25,0-.37.06s-.52.12-.78.19a2.32,2.32,0,0,0-.44.16,1.15,1.15,0,0,0-.67.88,1.13,1.13,0,0,0,.42,1,4.34,4.34,0,0,0,.54.33,7.89,7.89,0,0,1-2.87,2.9,31.08,31.08,0,0,1-3-1.61c.22-.29.43-.58.63-.88a1.68,1.68,0,0,0,.31-1.14,1.52,1.52,0,0,0-.58-1A1.55,1.55,0,0,0,97,372c-.24.35-.5.69-.76,1a18.55,18.55,0,0,1-3.68-3.57l.11,0a10.87,10.87,0,0,1,2-.34,1.54,1.54,0,0,0-.4-3.06Z" style="fill:#fff;opacity:0.5;isolation:isolate"></path><path d="M96.37,341a9.89,9.89,0,0,1,2-1.08,5.31,5.31,0,0,0-.79-1.46c-3.06-3.9-4.45,0-6.82.06a4.07,4.07,0,0,0-3,1.26,6.74,6.74,0,0,1,.87.38.79.79,0,0,1,.22,1.2,2.29,2.29,0,0,1-1.18.77,2,2,0,0,1-.43,0,6.53,6.53,0,0,0,.54,1.71,9.78,9.78,0,0,0,1.11,1.84,7.91,7.91,0,0,1,.79-.35.77.77,0,0,1,1,.7,3.57,3.57,0,0,1-.33,1.21,11.13,11.13,0,0,0,2,1.38l.22-.13c.16-.09.33-.17.49-.24l.3-.11a.76.76,0,0,1,.74.17.75.75,0,0,1,.24.73,2.83,2.83,0,0,1-.14.41,5.39,5.39,0,0,0,2.78.26,21.16,21.16,0,0,0,.9-2.18l-.72-.19a1.17,1.17,0,0,1-.67-.46,1.09,1.09,0,0,1-.14-.79,1.06,1.06,0,0,1,.47-.66,1,1,0,0,1,.79-.14c.28.08.57.14.86.2a13,13,0,0,0,.37-3.49l-.08,0a8.87,8.87,0,0,0-1.22.72,1.05,1.05,0,0,1-1.45-.32A1.07,1.07,0,0,1,96.37,341Z" style="fill:#5490FF"></path><path d="M96.37,341a9.89,9.89,0,0,1,2-1.08,5.31,5.31,0,0,0-.79-1.46c-3.06-3.9-4.45,0-6.82.06a4.07,4.07,0,0,0-3,1.26,6.74,6.74,0,0,1,.87.38.79.79,0,0,1,.22,1.2,2.29,2.29,0,0,1-1.18.77,2,2,0,0,1-.43,0,6.53,6.53,0,0,0,.54,1.71,9.78,9.78,0,0,0,1.11,1.84,7.91,7.91,0,0,1,.79-.35.77.77,0,0,1,1,.7,3.57,3.57,0,0,1-.33,1.21,11.13,11.13,0,0,0,2,1.38l.22-.13c.16-.09.33-.17.49-.24l.3-.11a.76.76,0,0,1,.74.17.75.75,0,0,1,.24.73,2.83,2.83,0,0,1-.14.41,5.39,5.39,0,0,0,2.78.26,21.16,21.16,0,0,0,.9-2.18l-.72-.19a1.17,1.17,0,0,1-.67-.46,1.09,1.09,0,0,1-.14-.79,1.06,1.06,0,0,1,.47-.66,1,1,0,0,1,.79-.14c.28.08.57.14.86.2a13,13,0,0,0,.37-3.49l-.08,0a8.87,8.87,0,0,0-1.22.72,1.05,1.05,0,0,1-1.45-.32A1.07,1.07,0,0,1,96.37,341Z" style="fill:#fff;opacity:0.30000000000000004;isolation:isolate"></path><path d="M67.1,348.27c-.21,1.48,3.77,2.44,7,3-.26,2.67-2,5.37-4.49,7.89-3.09-1.74-7.49-4-8.3-3.47s3.62,3.53,6.44,5.24a57.06,57.06,0,0,1-6.39,4.84c-1.38-1.29-3-2.43-4-1.81s-.73,2.63-.24,4.42c-3.36,1.95-5.87,3.14-5.87,3.14A67.5,67.5,0,0,1,49.07,362c.17-.33.34-.67.49-1,.54-1.26,0-1.79-.88-2a32.92,32.92,0,0,1,0-6.87c3.79-.8,8.41-2.27,6.68-4.55-1-1.37-3-1.53-4.94-1.18a8.61,8.61,0,0,1,.94-1.28c6.92-7.62,11.74,0,11.74,0,4-3.35,9.66-2.45,10.88,2.79C71.67,347.32,67.36,346.46,67.1,348.27Z" style="fill:#5490FF"></path><path d="M67.1,348.27c-.21,1.48,3.77,2.44,7,3-.26,2.67-2,5.37-4.49,7.89-3.09-1.74-7.49-4-8.3-3.47s3.62,3.53,6.44,5.24a57.06,57.06,0,0,1-6.39,4.84c-1.38-1.29-3-2.43-4-1.81s-.73,2.63-.24,4.42c-3.36,1.95-5.87,3.14-5.87,3.14A67.5,67.5,0,0,1,49.07,362c.17-.33.34-.67.49-1,.54-1.26,0-1.79-.88-2a32.92,32.92,0,0,1,0-6.87c3.79-.8,8.41-2.27,6.68-4.55-1-1.37-3-1.53-4.94-1.18a8.61,8.61,0,0,1,.94-1.28c6.92-7.62,11.74,0,11.74,0,4-3.35,9.66-2.45,10.88,2.79C71.67,347.32,67.36,346.46,67.1,348.27Z" style="fill:#fff;opacity:0.5;isolation:isolate"></path></g><g id="freepik--trash-bin--inject-2"><path d="M431.62,391.47a3,3,0,0,0-2.39-4.28,6.38,6.38,0,0,0-2-7,1.5,1.5,0,0,0-.88-.39,1.67,1.67,0,0,0-.94.42l-5.57,4a3.34,3.34,0,0,0-1.11,1.1c-1.14,2.2,3,5,1.28,6.86-.48.52-1.27.63-1.87,1-1.33.83-1.49,2.66-2.11,4.09s-2.77,2.56-3.6,1.23c.61-1.38-1.23-2.57-2.73-2.75s-3.06-.25-3.88-1.66c-2.13,1.86-6.88-3.32-6.77-5.41-1.75.13-2.94,1.77-3.32,3.4a24.48,24.48,0,0,0-.18,5.21c0,3.38-1.14,6.69-1.08,10.07,0,2.63,1.06,5.55,3.47,6.61a9.2,9.2,0,0,0,3.73.51l27.43-.18A4.19,4.19,0,0,0,431,414c1.24-.65,1.5-2.27,1.62-3.66l1.47-17.88Z" style="fill:#5490FF"></path><path d="M431.62,391.47a3,3,0,0,0-2.39-4.28,6.38,6.38,0,0,0-2-7,1.5,1.5,0,0,0-.88-.39,1.67,1.67,0,0,0-.94.42l-5.57,4a3.34,3.34,0,0,0-1.11,1.1c-1.14,2.2,3,5,1.28,6.86-.48.52-1.27.63-1.87,1-1.33.83-1.49,2.66-2.11,4.09s-2.77,2.56-3.6,1.23c.61-1.38-1.23-2.57-2.73-2.75s-3.06-.25-3.88-1.66c-2.13,1.86-6.88-3.32-6.77-5.41-1.75.13-2.94,1.77-3.32,3.4a24.48,24.48,0,0,0-.18,5.21c0,3.38-1.14,6.69-1.08,10.07,0,2.63,1.06,5.55,3.47,6.61a9.2,9.2,0,0,0,3.73.51l27.43-.18A4.19,4.19,0,0,0,431,414c1.24-.65,1.5-2.27,1.62-3.66l1.47-17.88Z" style="fill:#fff;opacity:0.30000000000000004;isolation:isolate"></path><path d="M433.22,362.47H390.66l.35,4.3.25,3.07.65,8,.37,4.59.49,6.11.21,2.62.07.78.25,3.08.34,4.22.21,2.62.22,2.66.25,3.08.19,2.33.21,2.62.09,1.14h39.06l.09-1.14.21-2.61.19-2.35.25-3.08.22-2.65.21-2.62.34-4.23.25-3.07.06-.78.21-2.62.5-6.11.37-4.58.64-8,.25-3.07.35-4.3Zm2.56,2.82h0l-.82-.82h.89Zm-.21,2.61-.08,1-3.81,3.81-4.37-4.37,3.91-3.91h.92Zm-1.1,13.62-2.79,2.79-4.37-4.37,4.37-4.36,3,3ZM394,378.6h0l3-3,4.37,4.36L397,384.31l-2.78-2.79Zm36.3-4.44-4.37,4.37-4.37-4.37,4.37-4.37Zm-6.87-9.69h5l-2.5,2.5Zm1.08,15.47-4.36,4.37-4.37-4.37,4.37-4.36ZM410,385.72l4.37-4.36,4.36,4.36-4.36,4.37Zm2.95,5.78-4.37,4.37-4.36-4.36,4.37-4.37Zm7.2-4.36,4.36,4.37-4.36,4.36-4.37-4.37Zm-5.78-8.61L410,374.16l4.37-4.37,4.36,4.37Zm-1.42,1.41-4.36,4.37-4.37-4.37,4.37-4.36Zm-10.15-1.41-4.36-4.37,4.36-4.37,4.37,4.37Zm0,2.83,4.37,4.36-4.37,4.37-4.36-4.37Zm4.37,15.93-4.37,4.36-4.36-4.36,4.36-4.37Zm1.41,1.41,4.37,4.37-4.36,4.37-4.37-4.37Zm1.42-1.41,4.37-4.37,4.36,4.37-4.36,4.36Zm10.15,1.41,4.36,4.37-4.36,4.37-4.37-4.37Zm5.78,5.78,4.37,4.37-2.83,2.83h-3.08l-2.83-2.83Zm-4.37-7.19,4.37-4.37,4.37,4.37-4.37,4.36Zm0-11.57,4.37-4.36,4.37,4.36-4.37,4.37Zm3-17.34-4.36,4.37-4.37-4.37,3.91-3.91h.92ZM414.34,367l-2.5-2.5h5Zm-1.42,1.41-4.36,4.37-4.37-4.37,3.91-3.91H409Zm-7.65-3.91-2.5,2.5-2.49-2.5Zm-7.82,0,3.91,3.91L397,372.75l-3.8-3.81-.08-1,3.42-3.43Zm-3.74,0-.81.81h0l-.07-.81Zm-.27,7.55,2.14,2.14L393.76,376Zm1.19,14.65-.17-2.07h0l1.12,1.12-.95.95Zm.21,2.63,2.15-2.16,4.37,4.37L397,395.87l-1.76-1.76Zm.65,8.08v-.19l.1.1-.09.09Zm.76,9.31-.55-6.7L397,398.7l4.37,4.37L397,407.43l-.74-.74Zm.4,5-.08-1,.42-.42,1.42,1.42Zm1.76-2.83,4.36-4.37,4.37,4.37-2.83,2.83h-3.08Zm8.73,2.83,1.42-1.42,1.42,1.42Zm5.66,0L410,408.85l4.37-4.37,4.36,4.37-2.82,2.83Zm5.9,0,1.42-1.42,1.42,1.42Zm13.32,0h-1.76l1.42-1.42.42.42Zm.41-5-.75.74-4.37-4.36,4.37-4.37L433,400Zm.77-9.51,0,.2-.09-.09.11-.11Zm.25-3.07-1.77,1.76-4.37-4.36,4.37-4.37,2.16,2.16Zm.6-7.43-1-1,1.13-1.12ZM435.24,372l-.32,4-1.83-1.83,2.15-2.15Z" style="fill:#5490FF"></path><g style="opacity:0.6000000000000001;isolation:isolate"><path d="M433.22,362.47H390.66l.35,4.3.25,3.07.65,8,.37,4.59.49,6.11.21,2.62.07.78.25,3.08.34,4.22.21,2.62.22,2.66.25,3.08.19,2.33.21,2.62.09,1.14h39.06l.09-1.14.21-2.61.19-2.35.25-3.08.22-2.65.21-2.62.34-4.23.25-3.07.06-.78.21-2.62.5-6.11.37-4.58.64-8,.25-3.07.35-4.3Zm2.56,2.82h0l-.82-.82h.89Zm-.21,2.61-.08,1-3.81,3.81-4.37-4.37,3.91-3.91h.92Zm-1.1,13.62-2.79,2.79-4.37-4.37,4.37-4.36,3,3ZM394,378.6h0l3-3,4.37,4.36L397,384.31l-2.78-2.79Zm36.3-4.44-4.37,4.37-4.37-4.37,4.37-4.37Zm-6.87-9.69h5l-2.5,2.5Zm1.08,15.47-4.36,4.37-4.37-4.37,4.37-4.36ZM410,385.72l4.37-4.36,4.36,4.36-4.36,4.37Zm2.95,5.78-4.37,4.37-4.36-4.36,4.37-4.37Zm7.2-4.36,4.36,4.37-4.36,4.36-4.37-4.37Zm-5.78-8.61L410,374.16l4.37-4.37,4.36,4.37Zm-1.42,1.41-4.36,4.37-4.37-4.37,4.37-4.36Zm-10.15-1.41-4.36-4.37,4.36-4.37,4.37,4.37Zm0,2.83,4.37,4.36-4.37,4.37-4.36-4.37Zm4.37,15.93-4.37,4.36-4.36-4.36,4.36-4.37Zm1.41,1.41,4.37,4.37-4.36,4.37-4.37-4.37Zm1.42-1.41,4.37-4.37,4.36,4.37-4.36,4.36Zm10.15,1.41,4.36,4.37-4.36,4.37-4.37-4.37Zm5.78,5.78,4.37,4.37-2.83,2.83h-3.08l-2.83-2.83Zm-4.37-7.19,4.37-4.37,4.37,4.37-4.37,4.36Zm0-11.57,4.37-4.36,4.37,4.36-4.37,4.37Zm3-17.34-4.36,4.37-4.37-4.37,3.91-3.91h.92ZM414.34,367l-2.5-2.5h5Zm-1.42,1.41-4.36,4.37-4.37-4.37,3.91-3.91H409Zm-7.65-3.91-2.5,2.5-2.49-2.5Zm-7.82,0,3.91,3.91L397,372.75l-3.8-3.81-.08-1,3.42-3.43Zm-3.74,0-.81.81h0l-.07-.81Zm-.27,7.55,2.14,2.14L393.76,376Zm1.19,14.65-.17-2.07h0l1.12,1.12-.95.95Zm.21,2.63,2.15-2.16,4.37,4.37L397,395.87l-1.76-1.76Zm.65,8.08v-.19l.1.1-.09.09Zm.76,9.31-.55-6.7L397,398.7l4.37,4.37L397,407.43l-.74-.74Zm.4,5-.08-1,.42-.42,1.42,1.42Zm1.76-2.83,4.36-4.37,4.37,4.37-2.83,2.83h-3.08Zm8.73,2.83,1.42-1.42,1.42,1.42Zm5.66,0L410,408.85l4.37-4.37,4.36,4.37-2.82,2.83Zm5.9,0,1.42-1.42,1.42,1.42Zm13.32,0h-1.76l1.42-1.42.42.42Zm.41-5-.75.74-4.37-4.36,4.37-4.37L433,400Zm.77-9.51,0,.2-.09-.09.11-.11Zm.25-3.07-1.77,1.76-4.37-4.36,4.37-4.37,2.16,2.16Zm.6-7.43-1-1,1.13-1.12ZM435.24,372l-.32,4-1.83-1.83,2.15-2.15Z" style="fill:#fff"></path></g><rect x="387.93" y="360.69" width="52.8" height="5.57" rx="1.64" transform="translate(828.67 726.95) rotate(180)" style="fill:#5490FF"></rect><rect x="391.74" y="410.69" width="45.19" height="5.57" rx="1.64" style="fill:#5490FF"></rect></g><g id="freepik--Fridge--inject-2"><rect x="269.92" y="124.99" width="113.77" height="286.5" rx="3.73" transform="translate(653.61 536.48) rotate(180)" style="fill:#263238"></rect><rect x="231.81" y="117.24" width="146.83" height="299.02" rx="3.88" transform="translate(610.46 533.5) rotate(180)" style="fill:#5490FF"></rect><rect x="231.81" y="117.24" width="146.83" height="299.02" rx="3.88" transform="translate(610.46 533.5) rotate(180)" style="fill:#fff;opacity:0.2;isolation:isolate"></rect><rect x="231.81" y="117.24" width="102" height="299.02" rx="3.88" transform="translate(565.63 533.5) rotate(180)" style="opacity:0.30000000000000004;isolation:isolate"></rect><rect x="225.65" y="120.27" width="104.24" height="77.37" rx="3.38" style="fill:#5490FF"></rect><rect x="225.65" y="200.83" width="104.24" height="211.4" rx="3.38" style="fill:#5490FF"></rect><rect x="225.65" y="120.27" width="104.24" height="77.37" rx="3.38" style="fill:#fff;opacity:0.2;isolation:isolate"></rect><rect x="225.65" y="200.83" width="104.24" height="211.4" rx="3.38" style="fill:#fff;opacity:0.2;isolation:isolate"></rect><rect x="225.65" y="120.27" width="96.8" height="77.37" rx="3.38" style="fill:#fff;opacity:0.2;isolation:isolate"></rect><rect x="225.65" y="200.83" width="96.8" height="211.4" rx="3.38" style="fill:#fff;opacity:0.2;isolation:isolate"></rect><path d="M234.81,210.87h-3s.7,17.8,3,34.86v15.51h-3s-4.1-27.78-5-53h8Z" style="fill:#5490FF"></path><path d="M234.81,168.67a75.19,75.19,0,0,0-3.16,20.9h3.16V192h-8.07c.71-21.82,5.07-26.64,5.07-26.64h3Z" style="fill:#5490FF"></path><path d="M229.74,192c.71-21.82,5.07-26.64,5.07-26.64h-3s-4.36,4.82-5.07,26.64Z" style="fill:#fff;opacity:0.2;isolation:isolate"></path><path d="M226.81,208.23c.9,25.23,5,53,5,53h3s-4.1-27.78-5-53Z" style="fill:#fff;opacity:0.2;isolation:isolate"></path><polygon points="235.8 128.51 248 127.98 248 140.79 235.8 141.71 235.8 128.51" style="fill:#5490FF"></polygon><polygon points="235.8 128.51 248 127.98 248 140.79 235.8 141.71 235.8 128.51" style="fill:#fff;opacity:0.2;isolation:isolate"></polygon><path d="M237.62,129.93a.82.82,0,0,0,1.18.27c.18-.14.32-.36.54-.39.44-.05.63.64,1.07.68.27,0,.48-.22.71-.36a1.81,1.81,0,0,1,1-.2,10.53,10.53,0,0,1,2,.17" style="fill:none;stroke:#5490FF;stroke-linecap:round;stroke-linejoin:round;stroke-width:0.5px"></path><path d="M238,131.75l2.7.22" style="fill:none;stroke:#5490FF;stroke-linecap:round;stroke-linejoin:round;stroke-width:0.5px"></path><path d="M241.41,136.21l1.59.31c.15,0,.34,0,.44-.06s.07-.22.12-.33a.53.53,0,0,1,.59-.24,2.66,2.66,0,0,1,.63.27,4.69,4.69,0,0,0,2.36.23" style="fill:none;stroke:#5490FF;stroke-linecap:round;stroke-linejoin:round;stroke-width:0.5px"></path><path d="M241.21,139.32a18.72,18.72,0,0,0,3.5-.29l1.44-.2" style="fill:none;stroke:#5490FF;stroke-linecap:round;stroke-linejoin:round;stroke-width:0.5px"></path><polygon points="302.69 152.43 318.93 155.43 316.36 175.31 298.63 172.91 302.69 152.43" style="fill:#5490FF"></polygon><polygon points="318.93 155.43 316.36 175.31 298.63 172.91 302.04 155.71 302.69 152.43 305.69 152.98 318.93 155.43" style="fill:#fff;opacity:0.6000000000000001;isolation:isolate"></polygon><path d="M304.18,157.91a2.93,2.93,0,0,0,1.56.42,5.25,5.25,0,0,1,1.08-.2,3.74,3.74,0,0,1,.85.3,9.56,9.56,0,0,0,2.15.19c1.17.14,2.29.91,3.45.68" style="fill:none;stroke:#5490FF;stroke-linecap:round;stroke-linejoin:round;stroke-width:0.5px"></path><path d="M304,160.91a2.64,2.64,0,0,0,1.84.19,2.45,2.45,0,0,1,1.29,0c.14.06.26.14.39.21a4.23,4.23,0,0,0,2.29.21" style="fill:none;stroke:#5490FF;stroke-linecap:round;stroke-linejoin:round;stroke-width:0.5px"></path><path d="M311,165.15a15.91,15.91,0,0,0-4,.07,6.27,6.27,0,0,0-3.53,1.79,2.17,2.17,0,0,0-.57,1,1.85,1.85,0,0,0,.64,1.69,4.37,4.37,0,0,0,1.66.85,15.52,15.52,0,0,0,5.15.74,5.39,5.39,0,0,0,2.85-.7A2.41,2.41,0,0,0,314.3,168a1.05,1.05,0,0,0-.24-.44,1.15,1.15,0,0,0-.36-.2,6.38,6.38,0,0,0-2.47-.47" style="fill:none;stroke:#5490FF;stroke-linecap:round;stroke-linejoin:round;stroke-width:0.5px"></path><path d="M306.29,167.23a12.23,12.23,0,0,1,2.7.13c1,.12,1.94.25,2.91.43" style="fill:none;stroke:#5490FF;stroke-linecap:round;stroke-linejoin:round;stroke-width:0.5px"></path><path d="M307.21,168.93a39,39,0,0,1,3.89.35" style="fill:none;stroke:#5490FF;stroke-linecap:round;stroke-linejoin:round;stroke-width:0.5px"></path><polygon points="305.69 152.98 305.69 155.35 302.04 155.71 302.69 152.43 305.69 152.98" style="opacity:0.1;isolation:isolate"></polygon><polygon points="285.58 136.63 302 134.85 305.23 154.63 287.56 157.41 285.58 136.63" style="fill:#5490FF"></polygon><polygon points="285.58 136.63 302 134.85 305.23 154.63 287.56 157.41 285.58 136.63" style="fill:#fff;opacity:0.6000000000000001;isolation:isolate"></polygon><path d="M287.63,139s1.38-.73,2.17-.33a7.15,7.15,0,0,0,3.63.11,12.64,12.64,0,0,1,2.37-.51,5.5,5.5,0,0,0,1.52,0c.33-.13,2.37-.59,2.37-.59" style="fill:none;stroke:#5490FF;stroke-linecap:round;stroke-linejoin:round;stroke-width:0.5px"></path><path d="M288.37,142.32a1,1,0,0,1,1.4.12c.22-.13.39-.33.62-.44a1.89,1.89,0,0,1,.67-.11l2.83-.09a1.89,1.89,0,0,0,.85-.15,5,5,0,0,1,.58-.35,2,2,0,0,1,.69,0c1.08,0,2.12-1,3.14-.58" style="fill:none;stroke:#5490FF;stroke-linecap:round;stroke-linejoin:round;stroke-width:0.5px"></path><path d="M295.66,147.72c.47.2,1-.29,1.51-.14.13,0,.25.13.39.17a.58.58,0,0,0,.68-.33c0-.1.06-.22.16-.28a.32.32,0,0,1,.17,0l2.18.08" style="fill:none;stroke:#5490FF;stroke-linecap:round;stroke-linejoin:round;stroke-width:0.5px"></path><path d="M296.44,150.23c.76-.21,1.6,0,2.32-.3.18-.08.35-.19.53-.26.64-.23,1.41,0,2-.32" style="fill:none;stroke:#5490FF;stroke-linecap:round;stroke-linejoin:round;stroke-width:0.5px"></path><path d="M289.34,154.74c.45,0,.89,0,1.34,0a.86.86,0,0,0,.39-.06c.18-.09.28-.28.44-.41a1.43,1.43,0,0,1,.91-.21,24.47,24.47,0,0,0,2.58-.17" style="fill:none;stroke:#5490FF;stroke-linecap:round;stroke-linejoin:round;stroke-width:0.5px"></path><path d="M284.59,135.9c1-1.23,3.1.07,1.85,1.78S283.47,137.35,284.59,135.9Z" style="fill:#263238"></path><path d="M284.45,136.29c.57-.74,1.85,0,1.1,1.07S283.78,137.16,284.45,136.29Z" style="fill:#fff;opacity:0.2;isolation:isolate"></path><path d="M241,127c.95-1.23,3.1.07,1.85,1.78S239.85,128.46,241,127Z" style="fill:#263238"></path><path d="M240.83,127.4c.56-.74,1.85,0,1.1,1.07S240.15,128.27,240.83,127.4Z" style="fill:#fff;opacity:0.2;isolation:isolate"></path><path d="M316.24,153.92s-.66,3.29,0,3.58,3.36.31,3.36-.09-.08-3.69-.67-3.67Z" style="fill:#5490FF"></path><polygon points="316.77 154.77 318.55 154.63 318.55 155.71 316.77 155.71 316.77 154.77" style="fill:#fff;opacity:0.2;isolation:isolate"></polygon><polygon points="316.77 156.6 318.55 156.34 318.55 157 316.77 157 316.77 156.6" style="fill:#fff;opacity:0.2;isolation:isolate"></polygon><path d="M301.27,151.94l2.11,2.13s2.44-3.07,2.31-3.27a13.85,13.85,0,0,0-2.88,0v-.57S301,151.64,301.27,151.94Z" style="fill:#263238"></path><path d="M301.27,151.94l2.11,2.13s2.44-3.07,2.31-3.27a13.85,13.85,0,0,0-2.88,0v-.57S301,151.64,301.27,151.94Z" style="fill:#fff;opacity:0.2;isolation:isolate"></path><polygon points="272.73 179.88 285.78 178.68 287.63 192.67 273.52 194.12 272.73 179.88" style="fill:#5490FF"></polygon><g style="opacity:0.6000000000000001;isolation:isolate"><path d="M277.33,182.51a.88.88,0,0,1-.49-.13,1.5,1.5,0,0,1-.37-.33.8.8,0,0,0-.25-.24c-.21-.11-.51,0-.9.4a.25.25,0,1,1-.34-.36c.2-.2.83-.8,1.45-.49a1.25,1.25,0,0,1,.42.36.85.85,0,0,0,.24.23c.23.14.57,0,.89-.1l.13,0a4.09,4.09,0,0,1,2.35-.1l.06,0,.31.06a1.31,1.31,0,0,0,.36-.08,5.52,5.52,0,0,1,2.37-.21.25.25,0,0,1,.21.28.24.24,0,0,1-.28.22,5,5,0,0,0-2.1.17,1.94,1.94,0,0,1-.56.12,1.44,1.44,0,0,1-.44-.08l-.06,0a3.58,3.58,0,0,0-2.05.09l-.13,0A2.52,2.52,0,0,1,277.33,182.51Z" style="fill:#fff"></path></g><g style="opacity:0.6000000000000001;isolation:isolate"><path d="M277.56,186.14a1.48,1.48,0,0,1-1-.39.25.25,0,0,1,0-.35.24.24,0,0,1,.35,0,1,1,0,0,0,1,.2,2.16,2.16,0,0,0,.34-.17,1.6,1.6,0,0,1,.71-.27,1.82,1.82,0,0,1,.78.17,1,1,0,0,0,.64.11.81.81,0,0,0,.18-.1l.08-.05a2.08,2.08,0,0,1,1.6-.21.25.25,0,0,1,.17.31.24.24,0,0,1-.31.17,1.58,1.58,0,0,0-1.2.16l-.07,0a1.46,1.46,0,0,1-.28.14,1.37,1.37,0,0,1-1-.11,1.44,1.44,0,0,0-.57-.14,1.31,1.31,0,0,0-.5.2,2.74,2.74,0,0,1-.42.21A1.5,1.5,0,0,1,277.56,186.14Z" style="fill:#fff"></path></g><g style="opacity:0.6000000000000001;isolation:isolate"><path d="M277,191.83c-.5,0-1,0-1.43-.06a.26.26,0,0,1-.24-.27.27.27,0,0,1,.27-.23,7.43,7.43,0,0,0,4.17-.54,1.16,1.16,0,0,1,.56-.21,1.43,1.43,0,0,1,.43.1l.07,0a3.17,3.17,0,0,0,2-.18,4.43,4.43,0,0,1,2-.27.25.25,0,0,1,.21.29.24.24,0,0,1-.29.2,4.06,4.06,0,0,0-1.75.26,3.67,3.67,0,0,1-2.31.17l-.08,0-.23-.06a.71.71,0,0,0-.28.12A5.94,5.94,0,0,1,277,191.83Z" style="fill:#fff"></path></g><path d="M280.41,180.43s.54-3.31-.13-3.57-3.37-.19-3.36.21.22,3.68.8,3.64S280.41,180.43,280.41,180.43Z" style="fill:#263238"></path><polygon points="279.85 179.61 278.08 179.81 278.04 178.73 279.82 178.66 279.85 179.61" style="fill:#fff;opacity:0.2;isolation:isolate"></polygon><polygon points="279.79 177.77 278.01 178.1 277.99 177.44 279.77 177.38 279.79 177.77" style="fill:#fff;opacity:0.2;isolation:isolate"></polygon><polygon points="247.52 225.29 263.93 227.18 262.72 247.19 244.87 246 247.52 225.29" style="fill:#5490FF"></polygon><polygon points="247.52 225.29 263.93 227.18 262.72 247.19 244.87 246 247.52 225.29" style="fill:#fff;opacity:0.2;isolation:isolate"></polygon><path d="M249,228.06s1.51-.4,2.2.16a7.09,7.09,0,0,0,3.51.9,12.33,12.33,0,0,1,2.43,0,5.79,5.79,0,0,0,1.48.33c.35-.06,2.44-.05,2.44-.05" style="fill:none;stroke:#5490FF;stroke-linecap:round;stroke-linejoin:round;stroke-width:0.5px"></path><path d="M249,231.47a1,1,0,0,1,1.33.41c.25-.07.46-.23.71-.28a1.52,1.52,0,0,1,.67,0l2.79.54a1.92,1.92,0,0,0,.86,0A4.92,4.92,0,0,1,256,232a2.25,2.25,0,0,1,.67.12c1.06.24,2.28-.46,3.19.13" style="fill:none;stroke:#5490FF;stroke-linecap:round;stroke-linejoin:round;stroke-width:0.5px"></path><path d="M254.9,238.34c.42.3,1.06-.06,1.51.19.12.08.21.19.34.26a.59.59,0,0,0,.73-.17c.07-.09.12-.21.22-.24a.37.37,0,0,1,.18,0l2.1.56" style="fill:none;stroke:#5490FF;stroke-linecap:round;stroke-linejoin:round;stroke-width:0.5px"></path><path d="M255.12,241c.78,0,1.55.37,2.32.23.19,0,.38-.11.58-.14.67-.09,1.36.35,2,.13" style="fill:none;stroke:#5490FF;stroke-linecap:round;stroke-linejoin:round;stroke-width:0.5px"></path><path d="M247.19,243.79l1.3.32a.91.91,0,0,0,.4,0c.19,0,.34-.21.52-.3a1.41,1.41,0,0,1,.93,0,24.75,24.75,0,0,0,2.56.4" style="fill:none;stroke:#5490FF;stroke-linecap:round;stroke-linejoin:round;stroke-width:0.5px"></path><path d="M252.75,224.69l1.59,2.54s3-2.46,3-2.68a14,14,0,0,0-2.81-.63l.13-.56S252.53,224.34,252.75,224.69Z" style="fill:#263238"></path><path d="M252.75,224.69l1.59,2.54s3-2.46,3-2.68a14,14,0,0,0-2.81-.63l.13-.56S252.53,224.34,252.75,224.69Z" style="fill:#fff;opacity:0.2;isolation:isolate"></path><polygon points="303.75 242.81 287.26 243.7 285.11 223.77 302.9 221.95 303.75 242.81" style="fill:#5490FF"></polygon><polygon points="287.26 243.7 285.11 223.77 302.9 221.95 303.62 239.47 303.75 242.81 300.71 242.98 287.26 243.7" style="fill:#fff;opacity:0.6000000000000001;isolation:isolate"></polygon><path d="M301,237.83a2.85,2.85,0,0,0-1.61,0,5.67,5.67,0,0,1-1,.45,3.45,3.45,0,0,1-.9-.1,9.89,9.89,0,0,0-2.13.32c-1.17.14-2.44-.35-3.51.15" style="fill:none;stroke:#5490FF;stroke-linecap:round;stroke-linejoin:round;stroke-width:0.5px"></path><path d="M300.53,234.86a2.58,2.58,0,0,0-1.82.25,2.49,2.49,0,0,1-1.26.3l-.44-.11a4.17,4.17,0,0,0-2.27.33" style="fill:none;stroke:#5490FF;stroke-linecap:round;stroke-linejoin:round;stroke-width:0.5px"></path><path d="M292.73,232.38a15.69,15.69,0,0,0,3.89-1,6.28,6.28,0,0,0,3-2.57,2.19,2.19,0,0,0,.32-1.08,1.83,1.83,0,0,0-1-1.49,4.21,4.21,0,0,0-1.82-.44,15.37,15.37,0,0,0-5.18.48,5.5,5.5,0,0,0-2.61,1.35,2.44,2.44,0,0,0-.53,2.73.91.91,0,0,0,.33.37,1.21,1.21,0,0,0,.41.12,6.44,6.44,0,0,0,2.51-.13" style="fill:none;stroke:#5490FF;stroke-linecap:round;stroke-linejoin:round;stroke-width:0.5px"></path><path d="M296.79,229.26a11.38,11.38,0,0,1-2.66.51c-1,.11-1.94.22-2.92.26" style="fill:none;stroke:#5490FF;stroke-linecap:round;stroke-linejoin:round;stroke-width:0.5px"></path><path d="M295.5,227.82a36.09,36.09,0,0,1-3.87.57" style="fill:none;stroke:#5490FF;stroke-linecap:round;stroke-linejoin:round;stroke-width:0.5px"></path><path d="M291.21,224.26s2.5-3.82,3.1-3.76,1.91,4.75,1.84,5.28S290.62,225.13,291.21,224.26Z" style="fill:#263238"></path><path d="M294.22,221.34a27.84,27.84,0,0,1,1.24,3.91c-.1.35-3.54-.68-3.76-1S294.22,221.34,294.22,221.34Z" style="fill:#fff;opacity:0.6000000000000001;isolation:isolate"></path><rect x="308.93" y="97.2" width="41.38" height="20.04" style="fill:#263238"></rect><rect x="308.93" y="97.2" width="41.38" height="20.04" style="fill:#fff;opacity:0.2;isolation:isolate"></rect><rect x="308.93" y="97.2" width="27.14" height="20.04" style="fill:#fff;opacity:0.2;isolation:isolate"></rect><rect x="307.35" y="84.05" width="27.14" height="13.14" style="fill:#263238"></rect><rect x="307.35" y="84.05" width="27.14" height="13.14" style="fill:#fff;opacity:0.5;isolation:isolate"></rect><rect x="307.35" y="84.05" width="17.8" height="13.14" style="fill:#fff;opacity:0.2;isolation:isolate"></rect><path d="M280.61,117.24H267l.43-11,0-.55.45-11.48a2.36,2.36,0,0,1,2.35-2.27h7.13a2.36,2.36,0,0,1,2.35,2.27l.21,5.29,0,.51Z" style="fill:#5490FF"></path><path d="M271,94.89c0,.91-.47,1.65-1.05,1.65s-1.06-.74-1.06-1.65.48-1.65,1.06-1.65S271,94,271,94.89Z" style="opacity:0.30000000000000004;isolation:isolate"></path><g style="opacity:0.30000000000000004;isolation:isolate"><path d="M279.93,100c-1.26-.37-4.21-.86-5.66,2.07-1.25,2.54-3.23,4.23-5.16,4.42l-.36,0a3.35,3.35,0,0,1-1.36-.28l0-.55a3,3,0,0,0,1.64.31c1.76-.17,3.59-1.76,4.77-4.15,1.52-3.09,4.61-2.73,6.08-2.35Z"></path></g><rect x="258.34" y="109.59" width="6.07" height="7.65" style="fill:#5490FF"></rect><rect x="258.34" y="109.59" width="6.07" height="7.65" style="fill:#fff;opacity:0.4;isolation:isolate"></rect><rect x="257.81" y="108.67" width="7.12" height="1.98" style="fill:#5490FF"></rect><path d="M245.47,111.17H260.1a0,0,0,0,1,0,0v4.51a1.56,1.56,0,0,1-1.56,1.56H247a1.56,1.56,0,0,1-1.56-1.56v-4.51A0,0,0,0,1,245.47,111.17Z" style="fill:#5490FF"></path><path d="M245.47,111.17H260.1a0,0,0,0,1,0,0v4.51a1.56,1.56,0,0,1-1.56,1.56H247a1.56,1.56,0,0,1-1.56-1.56v-4.51A0,0,0,0,1,245.47,111.17Z" style="opacity:0.30000000000000004;isolation:isolate"></path><rect x="245" y="110.44" width="15.58" height="1.57" style="fill:#263238"></rect></g><g id="freepik--Character--inject-2"><path d="M242.14,148.25a71.53,71.53,0,0,1-3.56,24.82l17.67,3.43s5.28-16.09,4.75-26.24Z" style="fill:#5490FF"></path><path d="M242.14,148.25a71.53,71.53,0,0,1-3.56,24.82l17.67,3.43s5.28-16.09,4.75-26.24Z" style="fill:#fff;opacity:0.6000000000000001;isolation:isolate"></path><path d="M239.24,149.46s2.51-3.82,3.1-3.75,1.91,4.74,1.85,5.27S238.65,150.34,239.24,149.46Z" style="fill:#263238"></path><path d="M242.26,146.55a28.16,28.16,0,0,1,1.23,3.9c-.09.35-3.53-.67-3.75-1S242.26,146.55,242.26,146.55Z" style="fill:#fff;opacity:0.6000000000000001;isolation:isolate"></path><path d="M259.48,148.81a2.82,2.82,0,0,1,2.84-.56c.59.42,0,2.34,0,2.34l.92.59-.59,1.25L259,152v-.92l.66-.2S259,149.4,259.48,148.81Z" style="fill:#263238"></path><path d="M260.11,150.06c-.44-.87.79-2.23,1.43-1.24S260.74,151.31,260.11,150.06Z" style="fill:#fff;opacity:0.2;isolation:isolate"></path><polyline points="259.22 151.11 262.63 151.44 262.38 151.94 259.22 151.53" style="fill:#fff;opacity:0.2;isolation:isolate"></polyline><path d="M229.1,161.29l3.75-4.18s1.2-7.63,1.7-7.8,6.5-1.76,7.17-1,0,6.67-.49,8.09-3.62,2.05-3.62,2.05l-4.67,6.43Z" style="fill:#ebb376"></path><path d="M121.49,232.77s5.43-54.15,13.69-54.54h1.41s-4.9,2.41-7.55,16.85-5.82,36.59-5.82,36.59Z" style="fill:#263238"></path><path d="M171.75,175.72c9.4,2.45,28.79,2.84,39-1.21s20.56-17.1,20.56-17.1l4.92,5s-10,16-22.25,22.35-39.71,7.89-39.71,7.89Z" style="fill:#5490FF"></path><path d="M134.4,148.94c-1.29-6.77.89-15.28,9.19-17.16s13,1.78,13,1.78,4.92-2.27,8.94,4.06c6,9.49,1.1,19.69,3.67,25.79s9.49,6.4,1,18.84-36,11.05-41.54-.92.51-18,2.79-21C134,157,135.29,153.62,134.4,148.94Z" style="fill:#263238"></path><polygon points="204.11 402.4 197.44 403.58 194.71 394.5 192.22 386.16 199.9 383.48 202.13 393.5 204.11 402.4" style="fill:#e4897b"></polygon><path d="M195.94,403.4c-.11-.73,9-1.75,9-1.75s6.55,4.67,12.17,5,3.17,4.09-2.85,5.15l-14.91,2.63C195.08,415.17,197.11,411.05,195.94,403.4Z" style="fill:#263238"></path><path d="M209.44,403.17a14.23,14.23,0,0,1-3.27-.53l-.08,0h0a.13.13,0,0,1-.06-.07h0l0-.06h0a.34.34,0,0,1,0-.1c0-.11.41-2.34,1.54-3.07a1.41,1.41,0,0,1,1.17-.17c.45.12.69.34.73.65.06.48-.5,1.07-1.17,1.59a3.83,3.83,0,0,1,2.06-.13,1,1,0,0,1,.6.52.88.88,0,0,1,0,1A1.89,1.89,0,0,1,209.44,403.17Zm-2.47-.83c1.43.33,3.17.54,3.53.11,0,0,.13-.15,0-.49a.5.5,0,0,0-.31-.27C209.45,401.43,207.94,401.94,207,402.34Zm1.33-2.78a1,1,0,0,0-.51.15,4.11,4.11,0,0,0-1.21,2.21c1.25-.74,2.42-1.67,2.37-2.08,0-.13-.24-.21-.38-.24A.84.84,0,0,0,208.3,399.56Z" style="fill:#5490FF"></path><polygon points="202.17 393.7 194.75 394.68 192.24 386.25 199.91 383.52 202.17 393.7" style="opacity:0.2;isolation:isolate"></polygon><polygon points="159.64 405.26 152.87 405.26 151.76 395.84 150.76 387.2 158.79 385.89 159.24 396.14 159.64 405.26" style="fill:#e4897b"></polygon><path d="M151.42,404.82c0-.74,9.18-.16,9.18-.16s5.64,5.74,11.12,7,2.41,4.58-3.71,4.58H152.87C148.53,416.26,151.24,412.55,151.42,404.82Z" style="fill:#263238"></path><path d="M165.42,407a11.42,11.42,0,0,1-3.79-1.16.19.19,0,0,1-.08-.07h0a.1.1,0,0,1,0,0,.27.27,0,0,1,0-.18c0-.09.8-2.23,2.05-2.75a1.43,1.43,0,0,1,1.18,0c.42.2.62.46.61.77,0,.49-.69,1-1.43,1.37a3.68,3.68,0,0,1,2.05.22,1,1,0,0,1,.49.62.88.88,0,0,1-.22,1A1.3,1.3,0,0,1,165.42,407Zm-3-1.32c1.35.57,3,1.08,3.47.73,0,0,.15-.13.06-.49a.52.52,0,0,0-.27-.32C165.06,405.23,163.49,405.46,162.46,405.69Zm1.64-2.52a1,1,0,0,0-.37.08,4.09,4.09,0,0,0-1.57,2c1.36-.52,2.67-1.23,2.69-1.64,0-.13-.2-.25-.32-.31A1,1,0,0,0,164.1,403.17Z" style="fill:#5490FF"></path><polygon points="159.24 396.35 151.76 396.02 150.76 387.29 158.79 385.94 159.24 396.35" style="opacity:0.2;isolation:isolate"></polygon><path d="M202.79,388.42l-10.95,1.93c-11.05-27.53-18.91-50.51-24.46-69.58-3-10.29-5.32-19.44-7.11-27.56l.5,30v68.08H149.65c-27.05-129-7.88-158.48-7.88-158.48l32.36-5.53a146.33,146.33,0,0,1,2.71,18.11l1.46,10.7L191,321.38Z" style="fill:#5490FF"></path><path d="M202.79,388.42l-10.95,1.93c-11.05-27.53-18.91-50.51-24.46-69.58-3-10.29-5.32-19.44-7.11-27.56l.5,30v68.08H149.65c-27.05-129-7.88-158.48-7.88-158.48l32.36-5.53a146.33,146.33,0,0,1,2.71,18.11l1.46,10.7L191,321.38Z" style="fill:#fff;opacity:0.6000000000000001;isolation:isolate"></path><polygon points="190.13 389 203.71 384.49 203.53 390.27 192.29 393.85 190.13 389" style="fill:#5490FF"></polygon><polygon points="148.2 389.62 162.36 387.55 161.18 393.21 149.49 394.78 148.2 389.62" style="fill:#5490FF"></polygon><polygon points="141.77 227.94 141.77 232.77 174.77 230.24 174.77 224.53 141.77 227.94" style="fill:#263238"></polygon><rect x="160.16" y="226.02" width="7.24" height="5.49" transform="translate(-19.75 15.52) rotate(-5.12)" style="fill:#fff"></rect><rect x="151.43" y="225.95" width="1.64" height="8.35" transform="translate(-11.54 8.07) rotate(-2.92)" style="fill:#5490FF"></rect><rect x="151.43" y="225.95" width="1.64" height="8.35" transform="translate(-11.54 8.07) rotate(-2.92)" style="fill:#fff;opacity:0.6000000000000001;isolation:isolate"></rect><rect x="171.59" y="223.73" width="1.64" height="8.35" transform="translate(-11.39 9.08) rotate(-2.92)" style="fill:#5490FF"></rect><rect x="171.59" y="223.73" width="1.64" height="8.35" transform="translate(-11.39 9.08) rotate(-2.92)" style="fill:#fff;opacity:0.6000000000000001;isolation:isolate"></rect><path d="M174.91,225.11l-33,2.85a117.34,117.34,0,0,0-3.51-24.24c-.79-3.16-1.78-6.69-3-10.77-.68-2.18-1.43-4.52-2.27-7-.63-1.91-1.31-3.94-2.06-6.08a98,98,0,0,1,13.7-3.31A105.2,105.2,0,0,1,159.53,175c6.42-.05,13.8.67,13.8.67s1,.25,1.71,7.06C175.64,189.08,176.23,201.86,174.91,225.11Z" style="fill:#5490FF"></path><path d="M174.91,225.11l-33,2.85a117.34,117.34,0,0,0-3.51-24.24c-.79-3.16-1.78-6.69-3-10.77-.68-2.18-1.43-4.52-2.27-7-.63-1.91-1.31-3.94-2.06-6.08a98,98,0,0,1,13.7-3.31A105.2,105.2,0,0,1,159.53,175c6.42-.05,13.8.67,13.8.67s1,.25,1.71,7.06C175.64,189.08,176.23,201.86,174.91,225.11Z" style="opacity:0.30000000000000004;isolation:isolate"></path><path d="M167.38,320.77c-3-10.29-5.32-19.44-7.11-27.56a253.89,253.89,0,0,1,2.09-28.74S167.1,301.54,167.38,320.77Z" style="opacity:0.2;isolation:isolate"></path><path d="M143,183.31s-1.89-9,7.35-10.95,14.77,4,15.56,7.43L162,178.68s-4,5.68-3.72,9.77c0,0-3.83-5.93-10-8.24Z" style="fill:#5490FF"></path><path d="M156.81,182.25c-8.13-1-10.58-4.52-10.58-4.52,5.16-4.87.87-13.31.87-13.31l9.8,1.83a29.27,29.27,0,0,0-.39,4.12c-.07,5.95,2.62,6,2.62,6C160.85,179.59,156.81,182.25,156.81,182.25Z" style="fill:#ebb376"></path><path d="M156.9,166.25a29.27,29.27,0,0,0-.39,4.12c-6.61,0-9.41-6-9.41-6Z" style="opacity:0.2;isolation:isolate"></path><path d="M151.48,138.87c8.51-.46,11.5,3.94,12.61,12.68,1.38,10.92-.63,18.84-11.4,17.08C138.07,166.24,137.35,139.65,151.48,138.87Z" style="fill:#ebb376"></path><path d="M158.56,151.38a18.14,18.14,0,0,0,2.67,3.39,2.35,2.35,0,0,1-2.19,1.09Z" style="fill:#d58745"></path><path d="M153.31,151c.06.69-.28,1.29-.74,1.33s-.89-.5-.94-1.2.27-1.3.74-1.33S153.26,150.27,153.31,151Z" style="fill:#263238"></path><path d="M152.18,149.82l1.47-.72S153,150.44,152.18,149.82Z" style="fill:#263238"></path><path d="M162,150.14c.06.7-.28,1.29-.74,1.33s-.89-.5-.94-1.2.27-1.29.74-1.33S161.93,149.44,162,150.14Z" style="fill:#263238"></path><path d="M160.85,149l1.47-.71S161.66,149.61,160.85,149Z" style="fill:#263238"></path><path d="M152.9,145.09a4.44,4.44,0,0,0-3.62,1.49" style="fill:none;stroke:#263238;stroke-linecap:round;stroke-linejoin:round;stroke-width:0.7246800000000001px"></path><path d="M159.07,144.39a4,4,0,0,1,3.43.52" style="fill:none;stroke:#263238;stroke-linecap:round;stroke-linejoin:round;stroke-width:0.7246800000000001px"></path><path d="M158,159.27a22.68,22.68,0,0,0-.83,3,5.06,5.06,0,0,1-.55,0c-2.49-.11-3.61-1-4.09-1.93a3.15,3.15,0,0,1-.33-1.48,3.27,3.27,0,0,1,.11-.87,11.77,11.77,0,0,0,4.84,1.24C157.65,159.27,158,159.27,158,159.27Z" style="fill:#263238"></path><path d="M157.13,159.22l-.27.88c-2.34-.11-4-.51-4.68-1.25a3.27,3.27,0,0,1,.11-.87A11.77,11.77,0,0,0,157.13,159.22Z" style="fill:#fff"></path><path d="M156.6,162.26c-2.49-.11-3.61-1-4.09-1.93a8.34,8.34,0,0,1,2.74.68A3.06,3.06,0,0,1,156.6,162.26Z" style="fill:#de5753"></path><path d="M143,153.73s3.59-7.21,2.69-12.58c0,0,16.49-7.81,18.26,9.26,0,0,.82-15.29-13.83-14.83s-13.42,21.87-5.51,27.83C144.58,163.41,140.74,158.24,143,153.73Z" style="fill:#263238"></path><path d="M144.46,155.45a3.75,3.75,0,0,0-4.21-3.19c-2.62.43-3.58,5.91,3.05,6.85C144.25,159.25,144.73,158.3,144.46,155.45Z" style="fill:#ebb376"></path><path d="M154.55,139.41c-7.45.73.93,12.74-13.82,21.69-11.3,6.85-7.13,11.72-7.13,11.72s-4.82-6.89,0-13.78-.17-11.24,4.48-18S154.55,139.41,154.55,139.41Z" style="fill:#263238"></path><path d="M154.55,139.41a3.77,3.77,0,0,0-2.94,2.83c-.78,2.78-.59,5.77-.9,8.62-.58,5.34-3.91,10.59-10,9.27" style="fill:none;stroke:#263238;stroke-miterlimit:10;stroke-width:0.5px"></path><path d="M140.22,234.74s-14.73-4.49-16.51-4.62-5.34,25.39-4.74,26.37,15.82,5.74,17.8,4.75S140.22,234.74,140.22,234.74Z" style="fill:#263238"></path><path d="M140.22,234.74s-14.73-4.49-16.51-4.62-5.34,25.39-4.74,26.37,15.82,5.74,17.8,4.75S140.22,234.74,140.22,234.74Z" style="fill:#fff;opacity:0.1;isolation:isolate"></path><path d="M140.22,234.74s-17-5.25-17.59-5.34-3.13,11.8-2.58,12.16,16.22,5,16.62,4.19S137.53,234,140.22,234.74Z" style="fill:#263238"></path><path d="M140.22,234.74s-17-5.25-17.59-5.34-3.13,11.8-2.58,12.16,16.22,5,16.62,4.19S137.53,234,140.22,234.74Z" style="fill:#fff;opacity:0.2;isolation:isolate"></path><path d="M136.59,178.23c7.56,4.4,3.5,58.4,3.5,58.4h-1.83s4.44-50.62-3.08-58.4Z" style="fill:#263238"></path><path d="M136.59,178.23c7.56,4.4,3.5,58.4,3.5,58.4h-1.83s4.44-50.62-3.08-58.4Z" style="fill:#fff;opacity:0.1;isolation:isolate"></path><path d="M127.67,241.86a31.33,31.33,0,0,0-1,7.32l-1.58,1.68-.59-2.08a15.29,15.29,0,0,1,.89-7.71Z" style="fill:#263238"></path><path d="M126.91,245a.76.76,0,0,1-.21,0l-2-.6a.73.73,0,0,1-.49-.9l.61-2.24a.77.77,0,0,1,.37-.46.75.75,0,0,1,.57-.05h0l1.84.6a.72.72,0,0,1,.49.85l-.49,2.25a.72.72,0,0,1-.35.48A.69.69,0,0,1,126.91,245Zm-1.34-3.82a.27.27,0,0,0-.12,0,.22.22,0,0,0-.11.15l-.62,2.25a.25.25,0,0,0,.16.29l2,.59a.21.21,0,0,0,.19,0,.21.21,0,0,0,.11-.15l.49-2.25a.24.24,0,0,0-.16-.28l-1.83-.6Z" style="fill:#263238"></path><g style="opacity:0.4;isolation:isolate"><path d="M126.91,245a.76.76,0,0,1-.21,0l-2-.6a.73.73,0,0,1-.49-.9l.61-2.24a.77.77,0,0,1,.37-.46.75.75,0,0,1,.57-.05h0l1.84.6a.72.72,0,0,1,.49.85l-.49,2.25a.72.72,0,0,1-.35.48A.69.69,0,0,1,126.91,245Zm-1.34-3.82a.27.27,0,0,0-.12,0,.22.22,0,0,0-.11.15l-.62,2.25a.25.25,0,0,0,.16.29l2,.59a.21.21,0,0,0,.19,0,.21.21,0,0,0,.11-.15l.49-2.25a.24.24,0,0,0-.16-.28l-1.83-.6Z" style="fill:#fff"></path></g><path d="M244.09,153.33a6.36,6.36,0,0,0,3.08-.47l.15.61a15.33,15.33,0,0,0,3.31.29.56.56,0,0,0,.05.72.55.55,0,0,0,.72,0c.14-.12.23-.31.41-.34s.31.08.45.15a1.82,1.82,0,0,0,.8.12l5.45,0" style="fill:none;stroke:#5490FF;stroke-linecap:round;stroke-linejoin:round;stroke-width:0.5px"></path><path d="M244.08,157.5l1.52.15a20,20,0,0,0,3.62.12.74.74,0,0,1,.55.09c.11.08.16.22.27.32a.76.76,0,0,0,.56.12l1.41,0a4.38,4.38,0,0,0,3.56.48" style="fill:none;stroke:#5490FF;stroke-linecap:round;stroke-linejoin:round;stroke-width:0.5px"></path><path d="M255.24,172.06l-.81-3c-.07-.24-.17-.52-.4-.6a.78.78,0,0,0-.63.17l-1.42.87a.35.35,0,0,1-.21.07.31.31,0,0,1-.16-.14l-.88-1.2c-.13-.17-.28-.36-.49-.37s-.44.21-.59.4c-.7.89-1.74,1.29-1.5,2.52a4.25,4.25,0,0,0,2.17,2.58,2.16,2.16,0,0,0,1.28.29,3,3,0,0,0,.64-.2l2.82-1.1c.08,0,.17-.07.19-.15A.28.28,0,0,0,255.24,172.06Zm-6.66-1.71a5,5,0,0,1,2.72.45s1.63-.75,3.36,1.18C254.66,172,250.51,171.93,248.58,170.35Z" style="fill:#5490FF"></path><path d="M165.31,197.64s-6.55,14.66-7,23.7l14.95-.84s3.69-13.85,6.73-20.31Z" style="fill:#5490FF"></path><path d="M165.31,197.64s-6.55,14.66-7,23.7l14.95-.84s3.69-13.85,6.73-20.31Z" style="fill:#fff;opacity:0.6000000000000001;isolation:isolate"></path><path d="M149.28,213.37l7.93-2.5,2.94-4.62s9.23.91,9.63,1.18-2,8.19-2.51,8.19h-7.72l-9.16,3Z" style="fill:#ebb376"></path><path d="M131,179.83c-7.56,1.24-11,35.52-7.56,42.64s31.1-4.22,31.1-4.22l-2.93-6.85s-16,5.27-18.41,2.63,0-12.89,3.17-17.65a38.94,38.94,0,0,0-1.2-11.36C133.61,179,131,179.83,131,179.83Z" style="fill:#5490FF"></path></g></svg>