<svg xmlns="http://www.w3.org/2000/svg" xmlns:xlink="http://www.w3.org/1999/xlink" width="42" zoomAndPan="magnify" viewBox="0 0 31.5 32.249999" height="43" preserveAspectRatio="xMidYMid meet" version="1.0"><defs><clipPath id="id1"><path d="M 7 14.554688 L 18.949219 14.554688 L 18.949219 26.273438 L 7 26.273438 Z M 7 14.554688 " clip-rule="nonzero"/></clipPath><clipPath id="id2"><path d="M 14.210938 5.425781 L 26.164062 5.425781 L 26.164062 17.199219 L 14.210938 17.199219 Z M 14.210938 5.425781 " clip-rule="nonzero"/></clipPath><clipPath id="id3"><path d="M 5.351562 7 L 14 7 L 14 16 L 5.351562 16 Z M 5.351562 7 " clip-rule="nonzero"/></clipPath></defs><g clip-path="url(#id1)"><path fill="rgb(0%, 29.019165%, 67.83905%)" d="M 18.929688 20.425781 C 14.152344 21.0625 13.625 21.582031 12.972656 26.277344 C 12.324219 21.582031 11.796875 21.0625 7.015625 20.425781 C 11.796875 19.785156 12.324219 19.269531 12.972656 14.570312 C 13.625 19.269531 14.152344 19.785156 18.929688 20.425781 " fill-opacity="1" fill-rule="nonzero"/></g><g clip-path="url(#id2)"><path fill="rgb(0%, 29.019165%, 67.83905%)" d="M 26.164062 11.28125 C 21.386719 11.917969 20.859375 12.4375 20.207031 17.136719 C 19.558594 12.4375 19.03125 11.917969 14.25 11.28125 C 19.03125 10.640625 19.558594 10.125 20.207031 5.425781 C 20.859375 10.125 21.386719 10.640625 26.164062 11.28125 " fill-opacity="1" fill-rule="nonzero"/></g><g clip-path="url(#id3)"><path fill="rgb(0%, 29.019165%, 67.83905%)" d="M 13.421875 11.429688 C 10.199219 11.859375 9.84375 12.207031 9.40625 15.375 C 8.964844 12.207031 8.613281 11.859375 5.390625 11.429688 C 8.613281 10.996094 8.964844 10.648438 9.40625 7.480469 C 9.84375 10.648438 10.199219 10.996094 13.421875 11.429688 " fill-opacity="1" fill-rule="nonzero"/></g><path fill="rgb(0%, 29.019165%, 67.83905%)" d="M 22.011719 24.109375 C 20.566406 24.304688 20.40625 24.460938 20.207031 25.882812 C 20.011719 24.460938 19.851562 24.304688 18.402344 24.109375 C 19.851562 23.914062 20.011719 23.757812 20.207031 22.335938 C 20.40625 23.757812 20.566406 23.914062 22.011719 24.109375 " fill-opacity="1" fill-rule="nonzero"/><path fill="rgb(0%, 29.019165%, 67.83905%)" d="M 25.5625 17.203125 C 24.113281 17.394531 23.953125 17.550781 23.757812 18.976562 C 23.5625 17.550781 23.402344 17.394531 21.953125 17.203125 C 23.402344 17.007812 23.5625 16.851562 23.757812 15.425781 C 23.953125 16.851562 24.113281 17.007812 25.5625 17.203125 " fill-opacity="1" fill-rule="nonzero"/></svg>